<svg width="120" height="33" viewBox="0 0 3756 1001" fill="none" xmlns="http://www.w3.org/2000/svg">
  <path fill-rule="evenodd" clip-rule="evenodd" d="M214.299 643.514L0.00982429 429.225L0.00983372 0.645996L428.588 0.646033L642.877 214.935L499.973 357.772L357.136 214.935L214.299 357.772L357.136 500.677L214.299 643.514ZM785.714 357.771L1000 572.06V1000.64H571.425L357.136 786.349L499.973 643.512L642.877 786.349L785.714 643.512L642.877 500.675L785.714 357.771ZM1000 0.646052L714.262 0.646027L1000 286.388V0.646052ZM285.674 1000.65L0 1000.65L1.24872e-05 714.972L285.674 1000.65Z" fill="#364CE5"/>
  <path d="M1657.67 875.641V804.691C1673.79 851.991 1737.22 885.315 1818.92 885.315C1895.24 885.315 1959.74 858.441 2010.27 804.691C2061.87 749.866 2087.67 683.217 2087.67 604.742C2087.67 526.267 2061.87 459.618 2010.27 405.868C1959.74 351.043 1895.24 324.168 1818.92 324.168C1737.22 324.168 1673.79 357.493 1657.67 404.793V126.369H1497.49V875.641H1657.67ZM1789.89 740.191C1750.12 740.191 1716.79 727.291 1688.84 701.491C1661.97 674.617 1647.99 642.367 1647.99 604.742C1647.99 567.117 1661.97 534.867 1688.84 509.067C1716.79 482.192 1750.12 469.293 1789.89 469.293C1828.59 469.293 1860.84 482.192 1887.72 509.067C1914.59 534.867 1927.49 567.117 1927.49 604.742C1927.49 642.367 1914.59 674.617 1887.72 701.491C1860.84 727.291 1828.59 740.191 1789.89 740.191Z" fill="#2D2F39"/>
  <path d="M2319.84 875.641V611.192C2319.84 521.967 2373.59 470.368 2464.96 470.368C2484.31 470.368 2502.59 472.518 2518.71 475.743V325.243C2501.51 323.093 2487.54 322.018 2476.79 322.018C2402.61 322.018 2344.56 353.193 2319.84 408.018V333.843H2159.67V875.641H2319.84Z" fill="#2D2F39"/>
  <path d="M2576.96 197.319C2576.96 247.844 2617.81 287.618 2668.33 287.618C2718.86 287.618 2759.71 247.844 2759.71 197.319C2759.71 145.719 2718.86 105.944 2668.33 105.944C2617.81 105.944 2576.96 145.719 2576.96 197.319ZM2748.96 875.641V333.843H2588.78V875.641H2748.96Z" fill="#2D2F39"/>
  <path d="M3109.38 316.643C3025.53 316.643 2954.58 344.593 2896.53 399.418C2839.56 454.243 2810.53 521.967 2810.53 603.667C2810.53 685.366 2839.56 753.091 2896.53 807.916C2954.58 862.741 3025.53 889.615 3109.38 889.615C3198.61 889.615 3273.86 856.291 3335.13 788.566L3234.08 688.591C3198.61 726.216 3157.76 744.491 3109.38 744.491C3031.98 744.491 2970.71 685.366 2970.71 603.667C2970.71 521.967 3030.91 461.768 3109.38 461.768C3157.76 461.768 3198.61 480.042 3234.08 517.667L3335.13 417.693C3273.86 349.968 3198.61 316.643 3109.38 316.643Z" fill="#2D2F39"/>
  <path d="M3556.8 875.641V611.192C3556.8 521.967 3610.55 470.368 3701.92 470.368C3721.27 470.368 3739.55 472.518 3755.67 475.743V325.243C3738.47 323.093 3724.5 322.018 3713.75 322.018C3639.57 322.018 3581.52 353.193 3556.8 408.018V333.843H3396.62V875.641H3556.8Z" fill="#2D2F39"/>
</svg>
