<svg width="120" height="33" viewBox="0 0 120 33" fill="none" xmlns="http://www.w3.org/2000/svg">
  <path d="M36.9729 8.09559L30.4865 1.83243C29.2655 0.651812 27.6214 -0.00547862 25.9118 0.00350894C24.2021 0.0124965 22.5652 0.687035 21.357 1.88043L17.8381 5.37596L17.5625 5.11199C16.9657 4.50313 16.2502 4.01982 15.459 3.69121C14.6678 3.3626 13.8173 3.1955 12.9589 3.19999C12.1005 3.20447 11.2518 3.38045 10.4642 3.71731C9.67658 4.05417 8.96628 4.54493 8.37614 5.15998L1.88977 11.5591C0.667395 12.8076 -0.0107494 14.4787 0.000616566 16.2145V25.3973C-0.0232397 27.1201 0.646036 28.782 1.86182 30.0189C3.07761 31.2558 4.74078 31.9669 6.48698 31.9964H32.4325C34.1527 31.9964 35.8026 31.3222 37.019 30.1221C38.2354 28.922 38.9188 27.2944 38.9188 25.5972V12.663C38.9185 11.8123 38.7462 10.9702 38.4121 10.186C38.078 9.40172 37.5887 8.69107 36.9729 8.09559ZM3.2438 25.3973V16.2145C3.23805 15.3245 3.57743 14.466 4.19243 13.8148L10.6788 7.41568C10.9696 7.10472 11.3225 6.85656 11.7153 6.68682C12.1081 6.51708 12.5323 6.42945 12.9612 6.42945C13.39 6.42945 13.8142 6.51708 14.207 6.68682C14.5999 6.85656 14.9528 7.10472 15.2436 7.41568L15.5192 7.67965L14.8544 8.33556C13.6556 9.5206 12.9795 11.1247 12.9734 12.799V25.5972C12.9754 26.7211 13.2774 27.8246 13.849 28.7968H6.48698C5.60018 28.7696 4.76056 28.3964 4.15248 27.759C3.54441 27.1216 3.21759 26.2722 3.2438 25.3973ZM22.7029 25.3973C22.7291 26.2722 22.4023 27.1216 21.7942 27.759C21.1861 28.3964 20.3465 28.7696 19.4597 28.7968C18.5996 28.7968 17.7747 28.4597 17.1664 27.8597C16.5582 27.2596 16.2165 26.4458 16.2165 25.5972V12.799C16.218 11.9529 16.5591 11.1418 17.1652 10.5433L17.8543 9.86335L21.7299 13.5988C22.3517 14.2476 22.6996 15.1057 22.7029 15.9985V25.3973ZM35.6756 25.5972C35.6756 26.4458 35.3339 27.2596 34.7257 27.8597C34.1175 28.4597 33.2926 28.7968 32.4325 28.7968H25.0056C25.6219 27.7671 25.9467 26.5931 25.9461 25.3973V16.0545C25.9559 14.3268 25.2842 12.6631 24.0731 11.4151H24.0326L20.1408 7.61565L23.6677 4.13612C24.2751 3.54263 25.0953 3.20968 25.9501 3.20968C26.805 3.20968 27.6252 3.54263 28.2325 4.13612L34.7189 10.3993C35.0214 10.696 35.2617 11.0487 35.4259 11.4371C35.59 11.8255 35.6749 12.2421 35.6756 12.663V25.5972Z" fill="url(#paint0_linear)"/>
  <path d="M59.0591 14.8064C63.2509 14.8064 66.5265 18.102 66.5265 23.3733C66.5265 28.6446 63.2428 31.9961 59.0591 31.9961C58.0376 32.0463 57.0204 31.8356 56.1056 31.3844C55.1909 30.9331 54.4097 30.2567 53.8375 29.4204V31.9961H48.6484V9.59912H53.8375V17.4141C54.4093 16.5752 55.1895 15.8951 56.1036 15.4385C57.0178 14.982 58.0353 14.7644 59.0591 14.8064ZM57.5104 19.2698C55.5726 19.2698 53.8051 20.7336 53.8051 23.4053C53.8051 26.0769 55.5726 27.5327 57.5104 27.5327C59.4482 27.5327 61.2401 26.0369 61.2401 23.3733C61.2401 20.7096 59.4807 19.2698 57.5104 19.2698Z" fill="#2F1F5B"/>
  <path d="M74.3755 31.9963H69.1621V14.9906H74.3755V17.7822C74.9361 16.8825 75.7187 16.1376 76.6503 15.6172C77.5819 15.0968 78.632 14.818 79.7025 14.8066V20.2459H78.2673C75.835 20.2459 74.3755 21.0858 74.3755 23.9734V31.9963Z" fill="#2F1F5B"/>
  <path d="M82.3438 14.8066H87.5653V31.9963H82.36L82.3438 14.8066Z" fill="#2F1F5B"/>
  <path d="M84.9483 12.799C86.7394 12.799 88.1914 11.3665 88.1914 9.59947C88.1914 7.8324 86.7394 6.3999 84.9483 6.3999C83.1571 6.3999 81.7051 7.8324 81.7051 9.59947C81.7051 11.3665 83.1571 12.799 84.9483 12.799Z" fill="#2F1F5B"/>
  <path d="M98.6927 14.8066C102.941 14.8066 105.941 17.1183 106.801 21.0938H101.271C101.105 20.5279 100.75 20.0335 100.265 19.6898C99.7802 19.3461 99.1922 19.1729 98.5955 19.198C96.7468 19.198 95.4739 20.6379 95.4739 23.4215C95.4739 26.2051 96.7468 27.6449 98.5955 27.6449C99.2007 27.6802 99.7997 27.5085 100.292 27.1588C100.783 26.8091 101.138 26.3027 101.295 25.7252H106.825C105.941 29.5966 102.974 31.9963 98.6927 31.9963C93.7145 31.9963 90.1875 28.7008 90.1875 23.4055C90.1875 18.1102 93.7145 14.8066 98.6927 14.8066Z" fill="#2F1F5B"/>
  <path d="M114.672 31.9963H109.459V14.9906H114.672V17.7822C115.233 16.8825 116.016 16.1376 116.947 15.6172C117.879 15.0968 118.929 14.818 119.999 14.8066V20.2459H118.564C116.132 20.2459 114.672 21.0858 114.672 23.9734V31.9963Z" fill="#2F1F5B"/>
<defs>
  <linearGradient id="paint0_linear" x1="0" y1="15.9999" x2="38.9188" y2="15.9999" gradientUnits="userSpaceOnUse">
  <stop stop-color="#EE2F57"/>
  <stop offset="1" stop-color="#0A57E9"/>
  </linearGradient>
</defs>
</svg>
