<svg width="48" height="56" viewBox="0 0 48 56" fill="none" xmlns="http://www.w3.org/2000/svg">
    <g filter="url(#filter0_d)">
        <path d="M24 4C16.1778 4 8 9.91304 8 19.6522C8 28.8696 22.2222 42.9565 22.7556 43.4783C23.1111 43.8261 23.4667 44 24 44C24.5333 44 24.8889 43.8261 25.2444 43.4783C25.7778 42.9565 40 28.8696 40 19.6522C40 9.91304 31.8222 4 24 4ZM24 24.8696C20.9778 24.8696 18.6667 22.6087 18.6667 19.6522C18.6667 16.6957 20.9778 14.4348 24 14.4348C27.0222 14.4348 29.3333 16.6957 29.3333 19.6522C29.3333 22.6087 27.0222 24.8696 24 24.8696Z" fill="#EE2F57"/>
    </g>
    <defs>
        <filter id="filter0_d" x="0" y="0" width="48" height="56" filterUnits="userSpaceOnUse" color-interpolation-filters="sRGB">
            <feFlood flood-opacity="0" result="BackgroundImageFix"/>
            <feColorMatrix in="SourceAlpha" type="matrix" values="0 0 0 0 0 0 0 0 0 0 0 0 0 0 0 0 0 0 127 0"/>
            <feOffset dy="4"/>
            <feGaussianBlur stdDeviation="4"/>
            <feColorMatrix type="matrix" values="0 0 0 0 0.623529 0 0 0 0 0.752941 0 0 0 0 1 0 0 0 0.5 0"/>
            <feBlend mode="normal" in2="BackgroundImageFix" result="effect1_dropShadow"/>
            <feBlend mode="normal" in="SourceGraphic" in2="effect1_dropShadow" result="shape"/>
        </filter>
    </defs>
</svg>
