<svg width="24" height="24" viewBox="0 0 24 24" fill="none" xmlns="http://www.w3.org/2000/svg">
<path fillRule="evenodd" clipRule="evenodd" d="M5.45455 5.7C5.45455 5.3134 5.12893 5 4.72727 5C4.32561 5 4 5.3134 4 5.7V18.3C4 18.6866 4.32561 19 4.72727 19C5.12893 19 5.45455 18.6866 5.45455 18.3V5.7ZM8.36399 8.49987C8.76565 8.49987 9.09126 8.81327 9.09126 9.19987V18.2999C9.09126 18.6865 8.76565 18.9999 8.36399 18.9999C7.96233 18.9999 7.63672 18.6865 7.63672 18.2999V9.19987C7.63672 8.81327 7.96233 8.49987 8.36399 8.49987ZM11.9997 12.0002C12.4014 12.0002 12.727 12.3136 12.727 12.7002V18.3002C12.727 18.6868 12.4014 19.0002 11.9997 19.0002C11.5981 19.0002 11.2725 18.6868 11.2725 18.3002V12.7002C11.2725 12.3136 11.5981 12.0002 11.9997 12.0002ZM16.3637 9.19987C16.3637 8.81327 16.0381 8.49987 15.6365 8.49987C15.2348 8.49987 14.9092 8.81327 14.9092 9.19987V18.2999C14.9092 18.6865 15.2348 18.9999 15.6365 18.9999C16.0381 18.9999 16.3637 18.6865 16.3637 18.2999V9.19987ZM19.2732 12.0002C19.6748 12.0002 20.0004 12.3136 20.0004 12.7002V18.3002C20.0004 18.6868 19.6748 19.0002 19.2732 19.0002C18.8715 19.0002 18.5459 18.6868 18.5459 18.3002V12.7002C18.5459 12.3136 18.8715 12.0002 19.2732 12.0002Z" fill="#828DB8"/>
</svg>
