<svg width="24" height="24" viewBox="0 0 24 24" fill="none" xmlns="http://www.w3.org/2000/svg">
<path fill-rule="evenodd" clip-rule="evenodd" d="M13.5323 6.33248C14.7029 5.16193 16.497 5.16193 17.6675 6.33248C18.8364 7.50137 18.8381 9.29203 17.6725 10.4627L15.8599 12.2028C15.5701 12.4809 15.5607 12.9413 15.8389 13.2311C16.1171 13.5209 16.5775 13.5302 16.8672 13.2521L18.6854 11.5066L18.696 11.4962C20.4346 9.75762 20.4346 7.04254 18.696 5.30395C16.9575 3.56535 14.2424 3.56535 12.5038 5.30395L10.4674 7.34034C8.72879 9.07894 8.72879 11.794 10.4674 13.5326C10.7514 13.8166 11.2119 13.8166 11.4959 13.5326C11.7799 13.2486 11.7799 12.7881 11.4959 12.5041C10.3254 11.3335 10.3254 9.53943 11.4959 8.36888L13.5323 6.33248ZM13.5326 10.4677C13.2486 10.1837 12.7881 10.1837 12.5041 10.4677C12.22 10.7518 12.22 11.2123 12.5041 11.4963C13.6746 12.6668 13.6746 14.4609 12.5041 15.6315L10.4677 17.6679C9.29712 18.8384 7.50303 18.8384 6.33248 17.6679C5.16359 16.499 5.16194 14.7083 6.32751 13.5377L8.1401 11.7976C8.42985 11.5194 8.43925 11.059 8.16108 10.7693C7.88291 10.4795 7.42252 10.4701 7.13276 10.7483L5.31455 12.4938L5.30395 12.5041C3.56535 14.2427 3.56535 16.9578 5.30395 18.6964C7.04254 20.435 9.75762 20.435 11.4962 18.6964L13.5326 16.66C15.2712 14.9214 15.2712 12.2063 13.5326 10.4677Z" fill="#828DB8"/>
</svg>
