<svg width="120" height="33" viewBox="0 0 120 33" fill="none" xmlns="http://www.w3.org/2000/svg">
<path d="M36.9719 8.09608L30.4856 1.83292C29.2645 0.6523 27.6204 -0.00499033 25.9108 0.00399722C24.2011 0.0129848 22.5642 0.687524 21.356 1.88092L17.8372 5.37644L17.5615 5.11248C16.9648 4.50362 16.2492 4.02031 15.458 3.6917C14.6668 3.36309 13.8164 3.19599 12.9579 3.20048C12.0995 3.20496 11.2509 3.38094 10.4632 3.7178C9.67561 4.05466 8.9653 4.54542 8.37516 5.16047L1.88879 11.5596C0.666418 12.8081 -0.011726 14.4792 -0.000359997 16.215V25.3977C-0.0242163 27.1206 0.645059 28.7825 1.86085 30.0194C3.07664 31.2563 4.73981 31.9674 6.48601 31.9969H32.4315C34.1518 31.9969 35.8016 31.3227 37.018 30.1226C38.2345 28.9225 38.9178 27.2949 38.9178 25.5977V12.6635C38.9175 11.8128 38.7452 10.9707 38.4111 10.1864C38.077 9.4022 37.5877 8.69156 36.9719 8.09608ZM3.24282 25.3977V16.215C3.23707 15.325 3.57645 14.4665 4.19145 13.8153L10.6778 7.41617C10.9686 7.10521 11.3215 6.85705 11.7144 6.68731C12.1072 6.51757 12.5314 6.42994 12.9602 6.42994C13.3891 6.42994 13.8133 6.51757 14.2061 6.68731C14.5989 6.85705 14.9518 7.10521 15.2426 7.41617L15.5183 7.68013L14.8534 8.33604C13.6546 9.52108 12.9786 11.1252 12.9724 12.7994V25.5977C12.9744 26.7216 13.2764 27.8251 13.848 28.7973H6.48601C5.59921 28.7701 4.75958 28.3969 4.15151 27.7595C3.54343 27.1221 3.21662 26.2727 3.24282 25.3977ZM22.7019 25.3977C22.7281 26.2727 22.4013 27.1221 21.7932 27.7595C21.1852 28.3969 20.3455 28.7701 19.4587 28.7973C18.5986 28.7973 17.7737 28.4602 17.1655 27.8602C16.5573 27.2601 16.2156 26.4463 16.2156 25.5977V12.7994C16.217 11.9534 16.5581 11.1423 17.1642 10.5437L17.8534 9.86384L21.729 13.5993C22.3507 14.2481 22.6986 15.1062 22.7019 15.999V25.3977ZM35.6747 25.5977C35.6747 26.4463 35.333 27.2601 34.7248 27.8602C34.1165 28.4602 33.2916 28.7973 32.4315 28.7973H25.0046C25.6209 27.7676 25.9457 26.5936 25.9451 25.3977V16.055C25.9549 14.3273 25.2832 12.6636 24.0722 11.4156H24.0316L20.1398 7.61614L23.6668 4.13661C24.2741 3.54312 25.0943 3.21017 25.9492 3.21017C26.804 3.21017 27.6242 3.54312 28.2316 4.13661L34.7179 10.3998C35.0205 10.6965 35.2607 11.0491 35.4249 11.4376C35.5891 11.826 35.6739 12.2426 35.6747 12.6635V25.5977Z" fill="url(#paint0_linear)"/>
<path d="M59.0583 14.8069C63.2501 14.8069 66.5258 18.1025 66.5258 23.3738C66.5258 28.645 63.242 31.9966 59.0583 31.9966C58.0369 32.0468 57.0196 31.8361 56.1049 31.3848C55.1902 30.9336 54.409 30.2572 53.8368 29.4209V31.9966H48.6477V9.59961H53.8368V17.4146C54.4085 16.5757 55.1887 15.8956 56.1029 15.439C57.0171 14.9825 58.0346 14.7649 59.0583 14.8069ZM57.5097 19.2703C55.5719 19.2703 53.8044 20.7341 53.8044 23.4057C53.8044 26.0774 55.5719 27.5332 57.5097 27.5332C59.4475 27.5332 61.2394 26.0374 61.2394 23.3738C61.2394 20.7101 59.4799 19.2703 57.5097 19.2703Z" fill="#2F1F5B"/>
<path d="M74.3746 31.9963H69.1611V14.9906H74.3746V17.7822C74.9351 16.8825 75.7178 16.1376 76.6493 15.6172C77.5809 15.0968 78.631 14.818 79.7015 14.8066V20.2459H78.2664C75.834 20.2459 74.3746 21.0858 74.3746 23.9734V31.9963Z" fill="#2F1F5B"/>
<path d="M82.343 14.8066H87.5645V31.9963H82.3592L82.343 14.8066Z" fill="#2F1F5B"/>
<path d="M84.947 12.7995C86.7382 12.7995 88.1902 11.367 88.1902 9.59996C88.1902 7.83289 86.7382 6.40039 84.947 6.40039C83.1559 6.40039 81.7039 7.83289 81.7039 9.59996C81.7039 11.367 83.1559 12.7995 84.947 12.7995Z" fill="#2F1F5B"/>
<path d="M98.6915 14.8066C102.94 14.8066 105.94 17.1183 106.799 21.0938H101.27C101.103 20.5279 100.749 20.0335 100.264 19.6898C99.779 19.3461 99.191 19.1729 98.5942 19.198C96.7456 19.198 95.4727 20.6379 95.4727 23.4215C95.4727 26.2051 96.7456 27.6449 98.5942 27.6449C99.1994 27.6802 99.7985 27.5085 100.29 27.1588C100.782 26.8091 101.137 26.3027 101.294 25.7252H106.824C105.94 29.5966 102.973 31.9963 98.6915 31.9963C93.7132 31.9963 90.1863 28.7008 90.1863 23.4055C90.1863 18.1102 93.7132 14.8066 98.6915 14.8066Z" fill="#2F1F5B"/>
<path d="M114.672 31.9963H109.459V14.9906H114.672V17.7822C115.233 16.8825 116.015 16.1376 116.947 15.6172C117.878 15.0968 118.928 14.818 119.999 14.8066V20.2459H118.564C116.131 20.2459 114.672 21.0858 114.672 23.9734V31.9963Z" fill="#2F1F5B"/>
<defs>
<linearGradient id="paint0_linear" x1="-0.000976562" y1="16.0004" x2="38.9178" y2="16.0004" gradientUnits="userSpaceOnUse">
<stop stop-color="#EE2F57"/>
<stop offset="1" stop-color="#0A57E9"/>
</linearGradient>
</defs>
</svg>
