<svg width="24" height="24" viewBox="0 0 24 24" fill="none" xmlns="http://www.w3.org/2000/svg">
<path fillRule="evenodd" clipRule="evenodd" d="M12 4C10.8951 4 10 4.89514 10 6V6.34838C9.80088 6.41875 9.60658 6.49926 9.41759 6.58945L9.1714 6.34326C8.39039 5.56225 7.12428 5.56225 6.34326 6.34326C5.56225 7.12428 5.56225 8.39039 6.34326 9.1714L6.58945 9.41759C6.49926 9.60658 6.41875 9.80088 6.34838 10H6C4.89603 10 4 10.8949 4 12C4 13.1049 4.89514 14 6 14H6.34838C6.41875 14.1991 6.49926 14.3934 6.58945 14.5824L6.34326 14.8286C5.56225 15.6096 5.56225 16.8757 6.34326 17.6567C7.12428 18.4378 8.39039 18.4378 9.1714 17.6567L9.4175 17.4106C9.6065 17.5008 9.80088 17.5813 10 17.6517V18C10 19.104 10.8949 20 12 20C13.1049 20 14 19.1049 14 18V17.6516C14.1991 17.5813 14.3934 17.5007 14.5824 17.4105L14.8286 17.6567C15.6096 18.4378 16.8757 18.4378 17.6567 17.6567C18.4378 16.8757 18.4378 15.6096 17.6567 14.8286L17.4106 14.5825C17.5008 14.3935 17.5813 14.1991 17.6517 14H18C19.104 14 20 13.1051 20 12C20 10.8951 19.1049 10 18 10H17.6516C17.5813 9.80088 17.5007 9.60658 17.4105 9.41759L17.6567 9.1714C18.4378 8.39039 18.4378 7.12428 17.6567 6.34326C16.8757 5.56225 15.6096 5.56225 14.8286 6.34326L14.5824 6.58945C14.3934 6.49926 14.1991 6.41875 14 6.34838V6C14 4.89603 13.1051 4 12 4ZM11.3333 6C11.3333 5.63152 11.6315 5.33333 12 5.33333C12.3683 5.33333 12.6667 5.63197 12.6667 6V6.84133C12.6667 7.14533 12.8723 7.41083 13.1667 7.48683C13.5939 7.59713 13.996 7.76503 14.3667 7.98361C14.6286 8.13802 14.9618 8.0957 15.1767 7.88074L15.7714 7.28607C16.0317 7.02575 16.4536 7.02575 16.7139 7.28607C16.9742 7.54639 16.9742 7.96828 16.7139 8.2286L16.1193 8.82326C15.9043 9.03823 15.862 9.3714 16.0164 9.63327C16.235 10.004 16.4029 10.4061 16.5132 10.8333C16.5892 11.1277 16.8547 11.3333 17.1587 11.3333H18C18.3685 11.3333 18.6667 11.6315 18.6667 12C18.6667 12.3683 18.368 12.6667 18 12.6667H17.1587C16.8547 12.6667 16.5892 12.8723 16.5132 13.1667C16.4028 13.5941 16.2349 13.9968 16.0166 14.3663C15.8619 14.6283 15.9042 14.9617 16.1193 15.1767L16.7139 15.7714C16.9742 16.0317 16.9742 16.4536 16.7139 16.7139C16.4536 16.9742 16.0317 16.9742 15.7714 16.7139L15.1767 16.1193C14.9618 15.9043 14.6286 15.862 14.3667 16.0164C13.996 16.235 13.5939 16.4029 13.1667 16.5132C12.8723 16.5892 12.6667 16.8547 12.6667 17.1587V18C12.6667 18.3685 12.3685 18.6667 12 18.6667C11.6317 18.6667 11.3333 18.368 11.3333 18V17.1587C11.3333 16.8547 11.1277 16.5892 10.8333 16.5132C10.4059 16.4028 10.0032 16.2349 9.63367 16.0166C9.37175 15.8619 9.03835 15.9042 8.82326 16.1193L8.2286 16.7139C7.96828 16.9742 7.54639 16.9742 7.28607 16.7139C7.02575 16.4536 7.02575 16.0317 7.28607 15.7714L7.88074 15.1767C8.0957 14.9618 8.13802 14.6286 7.98361 14.3667C7.76503 13.996 7.59713 13.5939 7.48683 13.1667C7.41083 12.8723 7.14533 12.6667 6.84133 12.6667H6C5.63152 12.6667 5.33333 12.3685 5.33333 12C5.33333 11.6317 5.63197 11.3333 6 11.3333H6.84133C7.14533 11.3333 7.41083 11.1277 7.48683 10.8333C7.59713 10.4061 7.76503 10.004 7.98361 9.63327C8.13802 9.3714 8.0957 9.03823 7.88074 8.82326L7.28607 8.2286C7.02575 7.96828 7.02575 7.54639 7.28607 7.28607C7.54639 7.02575 7.96828 7.02575 8.2286 7.28607L8.82326 7.88074C9.03823 8.0957 9.3714 8.13802 9.63327 7.98361C10.004 7.76503 10.4061 7.59713 10.8333 7.48683C11.1277 7.41083 11.3333 7.14533 11.3333 6.84133V6ZM10.6667 12C10.6667 11.2636 11.2636 10.6667 12 10.6667C12.7364 10.6667 13.3333 11.2636 13.3333 12C13.3333 12.7364 12.7364 13.3333 12 13.3333C11.2636 13.3333 10.6667 12.7364 10.6667 12ZM12 9.33333C10.5272 9.33333 9.33333 10.5272 9.33333 12C9.33333 13.4728 10.5272 14.6667 12 14.6667C13.4728 14.6667 14.6667 13.4728 14.6667 12C14.6667 10.5272 13.4728 9.33333 12 9.33333Z" fill="#828DB8"/>
</svg>
