<svg width="24" height="24" viewBox="0 0 24 24" fill="none" xmlns="http://www.w3.org/2000/svg">
    <path fill-rule="evenodd" clip-rule="evenodd" d="M4.66667 4C4.29848 4 4 4.29848 4 4.66667V7.33333C4 7.70152 4.29848 8 4.66667 8C5.03486 8 5.33333 7.70152 5.33333 7.33333V5.33333H7.33333C7.70152 5.33333 8 5.03486 8 4.66667C8 4.29848 7.70152 4 7.33333 4H4.66667ZM16.6667 4C16.2985 4 16 4.29848 16 4.66667C16 5.03486 16.2985 5.33333 16.6667 5.33333H18.6667V7.33333C18.6667 7.70152 18.9651 8 19.3333 8C19.7015 8 20 7.70152 20 7.33333V4.66667C20 4.29848 19.7015 4 19.3333 4H16.6667ZM4.66667 14.6665C5.03486 14.6665 5.33333 14.965 5.33333 15.3332V17.3332H7.33333C7.70152 17.3332 8 17.6316 8 17.9998C8 18.368 7.70152 18.6665 7.33333 18.6665H4.66667C4.29848 18.6665 4 18.368 4 17.9998V15.3332C4 14.965 4.29848 14.6665 4.66667 14.6665ZM20 15.3332C20 14.965 19.7015 14.6665 19.3333 14.6665C18.9651 14.6665 18.6667 14.965 18.6667 15.3332V17.3332H16.6667C16.2985 17.3332 16 17.6316 16 17.9998C16 18.368 16.2985 18.6665 16.6667 18.6665H19.3333C19.7015 18.6665 20 18.368 20 17.9998V15.3332Z" fill="#828DB8"/>
</svg>
